# xmcd
#
# Track frame offsets: 
#        150
#        28758
#        57500
#        85133
#        117724
#        146175
#        175660
#        205568
#        239278
#        270198
#        298121
#        328919
#
# Disc length: 4673 seconds
#
# Revision: 0
# Processed by: cddbd v1.5.2PL0 Copyright (c) Steve Scherf et al.
# Submitted via: ExactAudioCopyFreeDBPlugin 1.0
#
DISCID=b4123f0c
DTITLE=DJ小鱼儿 - 独一舞二
DYEAR=2015
DGENRE=Acid
TTITLE0=像男人一样去战斗
TTITLE1=朋友的酒
TTITLE2=太爱你所以离开你
TTITLE3=梦回云南
TTITLE4=勇敢勇敢
TTITLE5=我不是个好东西
TTITLE6=不再联系
TTITLE7=伤心一辈子
TTITLE8=桃花运
TTITLE9=姑娘跟我走
TTITLE10=你到底要我该怎么做
TTITLE11=我是不是你最疼爱的人
EXTD=
EXTT0=
EXTT1=
EXTT2=
EXTT3=
EXTT4=
EXTT5=
EXTT6=
EXTT7=
EXTT8=
EXTT9=
EXTT10=
EXTT11=
PLAYORDER=
